<svg xmlns="http://www.w3.org/2000/svg" xmlns:xlink="http://www.w3.org/1999/xlink" xmlns:inkscape="http://www.inkscape.org/namespaces/inkscape" version="1.1" width="185" height="117" viewBox="0 0 185 117">
<defs>
<path id="font_1_1" d="M.30299378 .3157959H.47299195C.61499026 .3157959 .7539978 .41973878 .7539978 .53167727 .7539978 .6086273 .6879883 .6826172 .5569916 .6826172H.23298645C.21398926 .6826172 .20298767 .6826172 .20298767 .66360476 .20298767 .6516113 .21199036 .6516113 .23199463 .6516113 .24499512 .6516113 .2630005 .65060427 .2749939 .6496124 .29100038 .6476135 .29699708 .64460757 .29699708 .6336212 .29699708 .6296234 .29599 .62661746 .29299928 .614624L.15899658 .07795715C.14898682 .038986207 .14698792 .0309906 .067993167 .0309906 .050994874 .0309906 .039993287 .0309906 .039993287 .011993408 .039993287 0 .051986696 0 .054992677 0 .08299255 0 .1539917 .0029907227 .18199158 .0029907227 .20298767 .0029907227 .22499085 .0019989014 .24598694 .0019989014 .2679901 .0019989014 .2899933 0 .31098939 0 .31799317 0 .33099366 0 .33099366 .019989014 .33099366 .0309906 .32199098 .0309906 .30299378 .0309906 .2659912 .0309906 .23799134 .0309906 .23799134 .048980714 .23799134 .054977418 .23999024 .05996704 .24099732 .065963748L.30299378 .3157959M.375 .6136322C.38398744 .64860537 .38598634 .6516113 .42900086 .6516113H.5249939C.60798647 .6516113 .6609955 .62461856 .6609955 .55566409 .6609955 .5166931 .6409912 .43074037 .60198977 .39476014 .5519867 .34977723 .49198915 .34179688 .44799806 .34179688H.30699159L.375 .6136322Z"/>
<path id="font_2_1" d="M.22898865 .09126282C.2709961 .13027954 .32099916 .16629029 .3769989 .20631409 .44400025 .2543335 .4869995 .28733827 .5289917 .32736207 .57899478 .3743744 .61299136 .41838075 .61299136 .42837525 .61299136 .4423828 .59799197 .4423828 .59199526 .4423828 .5779877 .4423828 .57699587 .44137574 .56900027 .43037416 .5309906 .37738038 .5079956 .37338258 .4909973 .37338258 .47499085 .37338258 .45999146 .3763733 .42900086 .3993683 .394989 .42536927 .37298585 .4423828 .33499146 .4423828 .24398804 .4423828 .18499756 .35437013 .18499756 .32336427 .18499756 .3083496 .19898987 .3083496 .20599365 .3083496 .21699524 .3083496 .22200012 .3103485 .22698975 .32035829 .23098755 .33236695 .24099732 .35636903 .32099916 .35636903 .34899903 .35636903 .36999513 .3533783 .42199708 .34536744 .45899964 .33937074 .47099305 .33937074 .48799134 .33937074 .45899964 .3133545 .42799378 .28733827 .35299684 .23332215 .2809906 .18229676 .23799134 .1512909 .19198609 .10726929 .1519928 .071243289 .10499573 .01725769 .10499573 .003250122 .10499573-.0107421879 .11999512-.0107421879 .12599182-.0107421879 .13798523-.0107421879 .14099121-.009750366 .14698792-.0017547608 .17599488 .038253786 .21199036 .058242799 .24699402 .058242799 .2749939 .058242799 .2889862 .04824829 .32499696 .020248414 .35299684-.00074768069 .37599183-.0107421879 .40499879-.0107421879 .5219879-.0107421879 .598999 .10826111 .598999 .14828491 .598999 .16229248 .58200076 .16229248 .5779877 .16229248 .56199648 .16229248 .55999758 .15829468 .55599978 .14628601 .5329895 .086257938 .45399476 .07525635 .41600038 .07525635 .394989 .07525635 .36898805 .07824707 .33999635 .08325195 .28399659 .09225464 .2679901 .09225464 .2539978 .09225464 .23799134 .09225464 .23599243 .09225464 .22898865 .09126282Z"/>
<path id="font_3_4" d="M.8909912 .3408203C.9049988 .3408203 .9299927 .3408203 .9299927 .3688202 .9299927 .39682008 .901001 .39682008 .8860016 .39682008H.14099121C.12599182 .39682008 .09700012 .39682008 .09700012 .3688202 .09700012 .3408203 .12298584 .3408203 .13598633 .3408203H.8909912M.8860016 .10316467C.901001 .10316467 .9299927 .10316467 .9299927 .13116455 .9299927 .15917969 .9049988 .15917969 .8909912 .15917969H.13598633C.12199402 .15917969 .09700012 .15917969 .09700012 .13116455 .09700012 .10316467 .12599182 .10316467 .14099121 .10316467H.8860016Z"/>
<path id="font_3_2" d="M.397995 .63591006C.397995 .6660156 .394989 .6660156 .3619995 .6660156 .29100038 .6016083 .17999268 .6016083 .1599884 .6016083H.14299011V.5576172H.1599884C.18299866 .5576172 .24798584 .5606079 .30599977 .58561709V.08596802C.30599977 .054977418 .30599977 .04399109 .19999695 .04399109H.1499939V0C.20498657 .0039978029 .2939911 .0039978029 .35198976 .0039978029 .4099884 .0039978029 .49899293 .0039978029 .55400088 0V.04399109H.5039978C.397995 .04399109 .397995 .054977418 .397995 .08596802V.63591006Z"/>
<path id="font_3_3" d="M.19599915 .55078127C.24899292 .53778079 .2939911 .53778079 .30499269 .53778079 .37298585 .53778079 .4229889 .55778506 .44898988 .57177737 .47299195 .583786 .54100039 .6267853 .54100039 .64878848 .54100039 .66378787 .5299988 .66578677 .5269928 .66578677 .5249939 .66578677 .522995 .66578677 .5119934 .66078189 .47399903 .6477814 .4119873 .63378909 .34599305 .63378909 .2889862 .63378909 .23399353 .64378359 .18099976 .66178897 .16999817 .66578677 .16799927 .66578677 .1659851 .66578677 .1519928 .66578677 .1519928 .6537781 .1519928 .63778689V.33763124C.1519928 .32061769 .1519928 .30760194 .17098999 .30760194 .18199158 .30760194 .18299866 .30960084 .19198609 .32061769 .22999573 .36468507 .2829895 .38671876 .35099793 .38671876 .40899659 .38671876 .44099427 .35266114 .45498658 .33163453 .47799684 .2975769 .48298646 .2525177 .48298646 .20446778 .48298646 .16246033 .47898866 .10646057 .43998719 .067489627 .394989 .021530152 .33799745 .01852417 .31599427 .01852417 .25099183 .01852417 .17799378 .04650879 .14698792 .10546875 .18899536 .10845947 .20298767 .13845825 .20298767 .1614685 .20298767 .19346619 .1789856 .21746826 .14698792 .21746826 .125 .21746826 .09098816 .20446778 .09098816 .15846253 .09098816 .0605011 .18699646-.022460938 .31799317-.022460938 .46699525-.022460938 .58898928 .07748413 .58898928 .20146179 .58898928 .3146057 .49198915 .41970826 .35299684 .41970826 .2899933 .41970826 .23899842 .40371705 .19599915 .37068177V.55078127Z"/>
<path id="font_3_1" d="M.6009979 .31976319C.6009979 .3918152 .6009979 .6660156 .33999635 .6660156 .07899475 .6660156 .07899475 .3918152 .07899475 .31976319 .07899475 .2467041 .07899475-.022460938 .33999635-.022460938 .6009979-.022460938 .6009979 .2467041 .6009979 .31976319M.33999635 .010528564C.30299378 .010528564 .21899414 .023544312 .19400025 .12461853 .17999268 .17866516 .1789856 .24971009 .1789856 .33177186 .1789856 .405838 .1789856 .47488404 .19499207 .5319214 .21998596 .6159973 .29699708 .63301089 .33999635 .63301089 .4139862 .63301089 .46699525 .5949707 .4869995 .5249176 .5009918 .47387696 .5009918 .39082337 .5009918 .33177186 .5009918 .26371766 .5009918 .18266297 .48599244 .12261963 .45999146 .025543213 .37998963 .010528564 .33999635 .010528564Z"/>
</defs>
<path transform="matrix(1.00002,0,0,-1,87.13637,58.492)" stroke-width=".3985" stroke-linecap="butt" stroke-miterlimit="10" stroke-linejoin="miter" fill="none" stroke="#000000" d="M85.04042 0C85.04042 31.31142 46.96713 56.69362 0 56.69362-46.96713 56.69362-85.04042 31.31142-85.04042 0-85.04042-31.31142-46.96713-56.69362 0-56.69362 46.96713-56.69362 85.04042-31.31142 85.04042 0ZM0 0"/>
<path transform="matrix(1.00002,0,0,-1,87.13637,58.492)" stroke-width=".3985" stroke-linecap="butt" stroke-miterlimit="10" stroke-linejoin="miter" fill="none" stroke="#000000" d="M73.70186-2.83484C73.70186 19.08304 47.05046 36.8505 14.17339 36.8505-18.70367 36.8505-45.35507 19.08304-45.35507-2.83484-45.35507-24.75273-18.70367-42.5202 14.17339-42.5202 47.05046-42.5202 73.70186-24.75273 73.70186-2.83484ZM14.17339-2.83484"/>
<path transform="matrix(1.00002,0,0,-1,87.13637,58.492)" stroke-width=".3985" stroke-linecap="butt" stroke-miterlimit="10" stroke-linejoin="miter" fill="none" stroke="#000000" d="M62.36288-2.83484C62.36288 9.68974 47.1336 19.84267 28.3468 19.84267 9.56 19.84267-5.66927 9.68974-5.66927-2.83484-5.66927-15.35945 9.56-25.51236 28.3468-25.51236 47.1336-25.51236 62.36288-15.35945 62.36288-2.83484ZM28.3468-2.83484"/>
<path transform="matrix(1.00002,0,0,-1,87.13637,58.492)" d="M75.11885-5.66927V0H99.21382V-5.66927ZM99.21382 0" fill="#ffffff"/>
<path transform="matrix(1.00002,0,0,-1,87.13637,58.492)" stroke-width=".3985" stroke-linecap="butt" stroke-miterlimit="10" stroke-linejoin="miter" fill="none" stroke="#ffffff" d="M75.11885-5.66927V0H99.21382V-5.66927ZM99.21382 0"/>
<path transform="matrix(1.00002,0,0,-1,87.13637,58.492)" d="M63.7803-15.59082V-7.08669H76.53629V-15.59082ZM76.53629-7.08669" fill="#ffffff"/>
<path transform="matrix(1.00002,0,0,-1,87.13637,58.492)" stroke-width=".3985" stroke-linecap="butt" stroke-miterlimit="10" stroke-linejoin="miter" fill="none" stroke="#ffffff" d="M63.7803-15.59082V-7.08669H76.53629V-15.59082ZM76.53629-7.08669"/>
<path transform="matrix(1.00002,0,0,-1,87.13637,58.492)" d="M42.5202-22.67752V-17.00824H62.36288V-22.67752ZM62.36288-17.00824" fill="#ffffff"/>
<path transform="matrix(1.00002,0,0,-1,87.13637,58.492)" stroke-width=".3985" stroke-linecap="butt" stroke-miterlimit="10" stroke-linejoin="miter" fill="none" stroke="#ffffff" d="M42.5202-22.67752V-17.00824H62.36288V-22.67752ZM62.36288-17.00824"/>
<use data-text="P" xlink:href="#font_1_1" transform="matrix(9.962799,0,0,-9.9626,113.33389,53.392)"/>
<use data-text="z" xlink:href="#font_2_1" transform="matrix(4.9813997,0,0,-4.9813,164.35993,62.932)"/>
<use data-text="=" xlink:href="#font_3_4" transform="matrix(4.9813997,0,0,-4.9813,170.01203,62.932)"/>
<use data-text="1" xlink:href="#font_3_2" transform="matrix(4.9813997,0,0,-4.9813,177.16532,62.932)"/>
<use data-text="5" xlink:href="#font_3_3" transform="matrix(4.9813997,0,0,-4.9813,180.55268,62.932)"/>
<use data-text="z" xlink:href="#font_2_1" transform="matrix(4.9813997,0,0,-4.9813,147.35057,72.853)"/>
<use data-text="=" xlink:href="#font_3_4" transform="matrix(4.9813997,0,0,-4.9813,153.00267,72.853)"/>
<use data-text="1" xlink:href="#font_3_2" transform="matrix(4.9813997,0,0,-4.9813,160.15596,72.853)"/>
<use data-text="0" xlink:href="#font_3_1" transform="matrix(4.9813997,0,0,-4.9813,163.54332,72.853)"/>
<use data-text="z" xlink:href="#font_2_1" transform="matrix(4.9813997,0,0,-4.9813,130.34224,79.94)"/>
<use data-text="=" xlink:href="#font_3_4" transform="matrix(4.9813997,0,0,-4.9813,135.99434,79.94)"/>
<use data-text="5" xlink:href="#font_3_3" transform="matrix(4.9813997,0,0,-4.9813,143.14763,79.94)"/>
<path transform="matrix(1.00002,0,0,-1,87.13637,58.492)" stroke-width=".79701" stroke-linecap="butt" stroke-miterlimit="10" stroke-linejoin="miter" fill="none" stroke="#0000ff" d="M48.18947 0H70.15965"/>
<path transform="matrix(1.00002,0,0,-1,157.29743,58.492)" stroke-width=".6376" stroke-linecap="round" stroke-linejoin="round" fill="none" stroke="#0000ff" d="M-1.55415 2.0722C-1.42464 1.29512 0 .1295 .38852 0 0-.1295-1.42464-1.29512-1.55415-2.0722"/>
<path transform="matrix(1.00002,0,0,-1,87.13637,58.492)" stroke-width=".79701" stroke-linecap="butt" stroke-miterlimit="10" stroke-linejoin="miter" fill="none" stroke="#ff0000" d="M48.18947 0V36.14357"/>
<path transform="matrix(0,-1,-1.00002,-0,135.3268,22.34843)" stroke-width=".6376" stroke-linecap="round" stroke-linejoin="round" fill="none" stroke="#ff0000" d="M-1.55415 2.0722C-1.42464 1.29512 0 .1295 .38852 0 0-.1295-1.42464-1.29512-1.55415-2.0722"/>
<path transform="matrix(1.00002,0,0,-1,87.13637,58.492)" d="M50.18202 0C50.18202 1.10046 49.28995 1.99255 48.18947 1.99255 47.089 1.99255 46.19691 1.10046 46.19691 0 46.19691-1.10046 47.089-1.99255 48.18947-1.99255 49.28995-1.99255 50.18202-1.10046 50.18202 0ZM48.18947 0"/>
</svg>
